<svg xmlns="http://www.w3.org/2000/svg" width="1001" height="210" viewBox="0 0 1001 210" version="1.1"><path d="M 171.467 19.073 C 170.457 21.313, 168.665 23.905, 167.485 24.833 C 166.304 25.762, 164.700 27.854, 163.919 29.482 C 163.139 31.110, 161.501 32.939, 160.280 33.548 C 159.058 34.157, 157.140 35.823, 156.017 37.251 C 154.894 38.679, 151.733 40.592, 148.993 41.502 L 144.012 43.157 147.008 47.512 C 148.656 49.907, 151.016 52.174, 152.252 52.549 C 157.447 54.127, 170 68.386, 170 72.708 C 170 73.766, 173.242 77, 174.303 77 C 174.658 77, 175.590 75.763, 176.373 74.250 C 177.157 72.737, 179.193 70.042, 180.899 68.259 C 182.605 66.477, 184 64.356, 184 63.546 C 184 61.362, 191.875 54.196, 195.642 52.953 C 197.615 52.302, 199.779 50.475, 201.089 48.356 C 202.285 46.421, 204.216 44.453, 205.382 43.982 C 207.415 43.161, 207.420 43.123, 205.500 43.041 C 202.661 42.920, 194.904 39.255, 192.287 36.799 C 191.071 35.656, 189.082 34.222, 187.868 33.611 C 186.654 33, 184.789 30.925, 183.723 29 C 182.657 27.075, 181.202 25.165, 180.490 24.755 C 179.778 24.346, 178.008 21.983, 176.556 19.505 C 173.367 14.063, 173.713 14.092, 171.467 19.073 M 87.723 42.697 C 87.470 43.139, 86.953 45.213, 86.575 47.306 C 86.128 49.786, 84.513 52.530, 81.944 55.177 C 79.775 57.412, 78 59.817, 78 60.522 C 78 61.226, 76.537 62.666, 74.750 63.722 C 72.672 64.950, 71.140 66.878, 70.500 69.071 C 69.932 71.019, 68.540 72.921, 67.278 73.475 C 66.056 74.011, 64.547 75.679, 63.925 77.182 C 63.217 78.890, 61.561 80.320, 59.502 80.999 C 57.692 81.597, 55.987 82.941, 55.714 83.987 C 55.440 85.032, 53.143 86.863, 50.608 88.054 C 48.074 89.245, 46 90.806, 46 91.521 C 46 93.089, 38.258 97, 35.153 97 C 33.934 97, 32.650 97.787, 32.298 98.750 C 31.451 101.070, 27.950 105.589, 27.326 105.167 C 27.055 104.983, 26.616 105.051, 26.349 105.317 C 26.083 105.584, 27.621 106.098, 29.766 106.461 C 34.046 107.184, 40 110.390, 40 111.972 C 40 112.523, 41.574 113.631, 43.498 114.435 C 45.422 115.238, 47.513 117.031, 48.145 118.419 C 48.826 119.915, 50.717 121.412, 52.788 122.095 C 56.799 123.419, 65.670 132.159, 70.499 139.543 C 72.313 142.317, 74.556 145.217, 75.484 145.987 C 76.412 146.757, 77.856 149.100, 78.694 151.193 C 79.532 153.287, 80.535 155, 80.924 155 C 82.059 155, 86 162.582, 86 164.764 C 86 172.102, 95.215 169.860, 98.151 161.806 C 99.350 158.517, 101.325 155.178, 102.542 154.380 C 103.759 153.583, 105.481 151.034, 106.368 148.715 C 109.170 141.393, 132.859 118.522, 140.126 116.123 C 142.095 115.474, 144.740 113.841, 146.004 112.496 C 147.267 111.151, 150.371 109.290, 152.901 108.360 C 155.430 107.430, 157.878 106.344, 158.339 105.945 C 159.782 104.701, 150.778 96.293, 147.176 95.521 C 145.347 95.129, 142.422 93.562, 140.676 92.039 C 138.929 90.516, 135.588 88.299, 133.250 87.114 C 130.912 85.929, 129 84.503, 129 83.946 C 129 83.389, 127.389 81.982, 125.420 80.820 C 123.450 79.658, 121.451 77.685, 120.975 76.435 C 120.500 75.185, 118.881 73.563, 117.377 72.831 C 115.872 72.099, 113.935 70.279, 113.071 68.787 C 112.207 67.295, 110.263 65.125, 108.750 63.965 C 107.237 62.804, 106 61.178, 106 60.350 C 106 59.523, 104.644 57.490, 102.987 55.833 C 99.419 52.265, 97.873 49.579, 97.041 45.500 C 96.432 42.520, 89.091 40.312, 87.723 42.697 M 236.239 56.250 C 235.686 56.938, 234.906 62.900, 234.507 69.500 C 234.107 76.100, 233.651 82.179, 233.494 83.008 C 233.337 83.837, 232.711 97.112, 232.103 112.508 C 231.495 127.904, 230.784 145.329, 230.523 151.232 C 230.262 157.134, 230.311 162.647, 230.631 163.482 C 231.516 165.787, 257.507 165.728, 258.393 163.418 C 259.535 160.443, 259.030 158.002, 257.250 157.894 C 252.821 157.625, 252.025 157.451, 252.013 156.750 C 252.006 156.338, 252 155.550, 252 155 C 252 154.450, 253.336 154, 254.969 154 C 257.197 154, 257.794 154.374, 257.362 155.500 C 257.045 156.325, 257.284 157, 257.893 157 C 258.502 157, 259 155.918, 259 154.595 C 259 152.367, 258.707 152.230, 255 152.727 C 251.417 153.207, 251 153.041, 251 151.132 C 251 149.959, 251.482 149, 252.071 149 C 252.661 149, 253.822 148.321, 254.652 147.491 C 255.482 146.661, 256.575 146.237, 257.081 146.550 C 258.743 147.577, 258.044 148.818, 255.250 149.800 C 252.950 150.609, 252.782 150.884, 254.224 151.481 C 256.703 152.507, 258.976 149.782, 258.718 146.095 C 258.565 143.917, 258.087 143.141, 257.123 143.509 C 256.366 143.798, 255.129 143.522, 254.373 142.895 C 253.339 142.036, 252.624 142.067, 251.476 143.020 C 249.756 144.448, 248.425 143.740, 249.514 141.977 C 249.944 141.282, 251.480 141.049, 253.365 141.394 C 255.089 141.709, 257.175 141.531, 258 140.999 C 259.304 140.157, 259.286 140.029, 257.867 140.015 C 256.968 140.007, 255.997 139.098, 255.709 137.996 C 255.360 136.659, 254.655 136.195, 253.593 136.603 C 252.704 136.944, 252 136.705, 252 136.062 C 252 135.286, 253.145 135.124, 255.500 135.566 C 258.753 136.176, 259 136.044, 259 133.685 C 259 132.104, 258.367 131.025, 257.321 130.823 C 255.750 130.521, 255.750 130.393, 257.321 128.821 C 259.287 126.856, 259.554 122.391, 257.750 121.659 C 256.852 121.295, 256.813 120.919, 257.611 120.326 C 258.277 119.830, 259.011 113.501, 259.447 104.500 C 259.846 96.250, 260.704 82.394, 261.353 73.710 C 262.003 65.025, 262.167 57.262, 261.717 56.460 C 260.625 54.507, 237.793 54.319, 236.239 56.250 M 334.246 56.432 C 333.150 57.736, 333.838 57.880, 339.703 57.573 C 346.819 57.201, 349.339 57.643, 348.435 59.105 C 348.131 59.597, 344.196 60.001, 339.691 60.002 L 331.500 60.004 322.343 82.721 C 311.188 110.397, 312.513 110.108, 306.083 86.264 C 303.152 75.394, 300.092 65.058, 299.284 63.296 L 297.816 60.092 283.851 60.225 L 269.887 60.359 270.087 62.929 C 270.197 64.343, 270.035 66.175, 269.727 67 C 269.420 67.825, 268.914 75.475, 268.604 84 C 268.294 92.525, 267.321 113.843, 266.443 131.373 C 264.954 161.093, 265.130 167.203, 267.413 164.920 C 268.234 164.100, 268.283 153.588, 267.506 145.391 C 266.964 139.680, 267.071 137.074, 267.868 136.582 C 268.491 136.197, 269 134.559, 269 132.941 C 269 131.323, 269.381 130, 269.848 130 C 270.314 130, 270.548 137.875, 270.368 147.500 L 270.041 165 280.962 165 C 290.827 165, 296.380 163.627, 292.177 162.226 C 290.747 161.749, 290.596 159, 292 159 C 292.550 159, 293 156.975, 293 154.500 C 293 152.025, 292.662 150.113, 292.250 150.250 C 291.837 150.388, 291.500 150.050, 291.500 149.500 C 291.500 148.950, 291.837 148.612, 292.250 148.750 C 292.663 148.887, 293.039 146.862, 293.088 144.250 C 293.136 141.637, 293.487 137.250, 293.868 134.500 L 294.560 129.500 298.407 141 C 306.338 164.711, 313.803 163.523, 326.686 136.500 C 331.333 126.753, 331.597 127.738, 330.174 149.500 C 329.064 166.462, 327.842 165.119, 344.080 164.780 L 357.500 164.500 357.402 115.353 C 357.294 60.996, 357.488 62.682, 350.739 57.651 C 347.158 54.982, 336.148 54.168, 334.246 56.432 M 408.693 56.250 C 401.123 57.546, 400.809 58.088, 386.577 94.500 C 378.317 115.632, 364.613 160.828, 365.648 163.525 C 366.108 164.723, 368.721 165, 379.572 165 C 394.863 165, 394.014 165.504, 396.036 155.226 C 396.714 151.775, 397.628 148.730, 398.065 148.460 C 400.477 146.969, 422.188 143.339, 422.537 144.368 C 422.748 144.991, 423.276 149.775, 423.710 155 L 424.500 164.500 438.633 164.777 C 455.967 165.116, 454.835 168.864, 448.388 132.500 C 434.471 53.993, 433.442 52.016, 408.693 56.250 M 498.746 56.024 C 472.337 62.679, 455.432 100.102, 461.928 137.532 C 468.669 176.375, 519.703 175.253, 531.611 136 C 538.552 113.120, 530.915 103.608, 508.308 106.971 C 498.532 108.426, 498.716 108.207, 497.065 120.291 C 495.194 133.980, 495.154 133.847, 501.250 134.198 L 506.500 134.500 502.368 138.750 C 488.444 153.070, 479.785 126.359, 488.879 97.142 C 495.248 76.677, 509.216 71.264, 507.725 89.838 C 507.009 98.761, 507.352 99, 520.870 99 C 533.823 99, 533.142 99.613, 533.782 87.377 C 534.993 64.221, 519.882 50.699, 498.746 56.024 M 547.229 56.171 C 546.553 56.847, 546.076 59.447, 546.168 61.950 C 546.324 66.178, 546.364 66.240, 546.723 62.836 L 547.110 59.172 553.305 58.785 C 561.164 58.294, 561.321 58.394, 558.142 61.889 C 555.529 64.762, 553.606 65.385, 555.906 62.613 C 556.691 61.668, 556.750 60.963, 556.079 60.549 C 555.519 60.203, 554.368 61.625, 553.522 63.710 C 548.624 75.775, 545.412 78.961, 546.171 71 C 546.381 68.800, 546.283 67, 545.953 67 C 544.654 67, 541.356 130.015, 541.452 153 L 541.500 164.500 555.250 164.778 C 569.972 165.076, 569.757 165.151, 569.023 160 C 568.736 157.983, 568.653 157.930, 565.366 157.678 C 561.829 157.406, 561.473 154.645, 564.912 154.159 C 566.766 153.897, 566.997 153.611, 565.912 152.925 C 564.754 152.192, 564.800 152.028, 566.167 152.015 C 567.083 152.007, 568.092 152.563, 568.407 153.250 C 568.723 153.938, 568.742 153.525, 568.450 152.334 C 568.158 151.143, 568.312 149.925, 568.793 149.628 C 570.256 148.724, 568.943 142.808, 567.410 143.396 C 566.670 143.680, 565.798 143.482, 565.473 142.956 C 564.490 141.365, 563.170 141.883, 563.450 143.750 C 563.595 144.713, 563.513 144.904, 563.269 144.177 C 563.025 143.449, 562.189 143.097, 561.413 143.395 C 560.591 143.710, 560 143.323, 560 142.469 C 560 141.661, 560.702 141, 561.559 141 C 562.529 141, 562.842 140.528, 562.387 139.750 C 561.985 139.063, 562.617 139.342, 563.791 140.371 C 566.531 142.773, 570.044 141.901, 567.574 139.431 C 565.578 137.435, 565.560 136, 567.531 136 C 569.853 136, 570.597 132.910, 568.623 131.466 C 567.091 130.346, 567.075 130.068, 568.461 128.682 C 570.312 126.831, 570.496 122.368, 568.750 121.659 C 567.861 121.299, 567.818 120.913, 568.599 120.326 C 569.264 119.826, 569.962 113.184, 570.368 103.500 C 570.736 94.700, 571.367 83.450, 571.769 78.500 C 572.171 73.550, 572.500 66.350, 572.500 62.500 L 572.500 55.500 560.479 55.221 C 551.979 55.024, 548.098 55.302, 547.229 56.171 M 583.132 57.250 C 581.681 61.239, 576.015 141.130, 576.005 157.750 L 576 165 588.864 165 L 601.728 165 602.364 160.360 C 603.522 151.910, 603.131 137.002, 601.750 136.985 C 600.800 136.973, 600.786 136.787, 601.693 136.211 C 603.440 135.100, 603.975 107.996, 602.250 107.998 C 601.563 107.999, 601 107.519, 601 106.930 C 601 102.783, 605.473 107.138, 607.747 113.500 C 609.124 117.350, 610.667 120.766, 611.178 121.092 C 611.688 121.417, 611.996 122.092, 611.863 122.592 C 611.276 124.790, 615.443 135.001, 616.933 135.015 C 618.056 135.026, 618.155 135.250, 617.283 135.804 C 616.382 136.376, 617.425 140.215, 621.284 150.539 L 626.503 164.500 639.251 164.780 C 650.919 165.036, 651.998 164.909, 651.979 163.280 C 651.968 162.301, 652.168 153.500, 652.423 143.723 C 652.861 126.930, 652.779 125.879, 650.943 124.733 C 648.495 123.203, 648.450 122, 650.841 122 C 652.550 122, 652.729 120.504, 653.327 101.250 C 653.681 89.838, 654.456 75.406, 655.049 69.179 C 656.438 54.607, 656.762 55, 643.353 55 C 630.752 55, 631.534 53.864, 630.614 73.500 C 629.747 92.025, 628.912 100.333, 628.021 99.325 C 627.620 98.871, 624.264 90.728, 620.564 81.230 C 611.088 56.902, 609.089 55, 593.007 55 C 584.524 55, 583.899 55.143, 583.132 57.250 M 866.214 56.382 C 862.757 57.091, 859.477 58.123, 858.926 58.674 C 853.832 63.768, 823 152.573, 823 162.151 L 823 165 836.961 165 L 850.923 165 851.916 161.250 C 852.463 159.188, 853.340 155.552, 853.866 153.172 C 854.392 150.792, 854.975 148.694, 855.161 148.510 C 856.026 147.656, 879.067 143.299, 879.449 143.917 C 879.687 144.303, 880.161 148.192, 880.501 152.559 C 881.583 166.433, 879.858 165.097, 896.276 164.777 L 910.500 164.500 910.258 160.563 C 909.912 154.929, 898.395 91.709, 895.418 79.099 C 890.169 56.875, 884.668 52.595, 866.214 56.382 M 924.246 56.250 C 922.328 58.650, 916.903 161.416, 918.553 164.086 C 919.637 165.840, 945.704 165.214, 946.393 163.418 C 947.376 160.855, 947.087 152, 946.020 152 C 945.480 152, 945.196 153.350, 945.388 155 C 945.725 157.895, 941.868 159.534, 939.736 157.402 C 938.554 156.221, 940.258 154, 942.357 153.985 C 944.107 153.972, 944.225 153.792, 943 153 C 941.892 152.284, 941.845 152.027, 942.821 152.015 C 945.165 151.988, 946.941 149.289, 946.718 146.095 C 946.565 143.917, 946.087 143.141, 945.123 143.509 C 944.366 143.798, 943.129 143.522, 942.373 142.895 C 941.339 142.036, 940.624 142.067, 939.476 143.020 C 937.746 144.456, 936.427 143.736, 937.527 141.956 C 937.948 141.275, 939.569 140.980, 941.377 141.256 C 946.171 141.987, 947.194 141.194, 944.688 138.688 L 942.500 136.500 944.750 136.180 C 947.499 135.790, 947.975 131.334, 945.321 130.823 C 943.750 130.521, 943.750 130.393, 945.321 128.821 C 947.109 127.034, 947.720 120.437, 946 121.500 C 945.450 121.840, 945 121.679, 945 121.142 C 945 120.606, 945.394 120.017, 945.875 119.833 C 946.357 119.650, 947.075 112.750, 947.470 104.500 C 947.866 96.250, 948.717 82.394, 949.362 73.710 C 950.007 65.025, 950.167 57.262, 949.717 56.460 C 948.625 54.507, 925.789 54.319, 924.246 56.250 M 668.494 57.009 C 666.333 60.507, 661.631 149.952, 662.876 163.892 C 662.978 165.035, 665.099 165.168, 674.750 164.638 C 681.212 164.282, 696.848 163.507, 709.495 162.915 C 736.839 161.634, 735 162.632, 735 149.078 C 735 135.017, 736.812 136, 710.893 136 L 689.185 136 688.843 130.625 C 688.382 123.405, 688.884 123.091, 704.304 120.958 C 711.536 119.958, 717.614 118.658, 717.810 118.069 C 718.006 117.481, 718.606 117, 719.142 117 C 719.679 117, 719.840 117.450, 719.500 118 C 718.713 119.273, 721.120 119.285, 724.435 118.025 C 727.121 117.003, 728.580 103, 726 103 C 725.450 103, 725 105.025, 725 107.500 C 725 109.975, 724.550 112, 724 112 C 723.430 112, 723 109.043, 723 105.130 L 723 98.260 718.750 97.822 C 716.413 97.581, 709.037 97.452, 702.359 97.535 L 690.218 97.687 690.733 91.593 C 691.411 83.572, 689.599 84.312, 714.539 81.878 C 726.618 80.699, 736.840 79.431, 737.257 79.060 C 738.704 77.772, 739.346 59.122, 737.999 57.499 C 736.485 55.675, 669.611 55.203, 668.494 57.009 M 239.651 58.816 C 236.466 59.078, 235.885 59.453, 236.286 60.987 C 236.553 62.007, 236.387 64.901, 235.916 67.419 C 234.968 72.494, 235.516 75, 237.576 75 C 238.324 75, 238.706 74.397, 238.423 73.660 C 238.140 72.923, 238.604 71.743, 239.454 71.038 C 240.305 70.332, 241 69.103, 241 68.306 C 241 67.509, 241.701 66.156, 242.558 65.300 C 243.414 64.443, 243.884 63.140, 243.601 62.403 C 242.925 60.641, 244.759 59.559, 246.294 60.814 C 247.111 61.482, 247.915 61.349, 248.789 60.400 C 249.499 59.630, 249.836 58.944, 249.539 58.875 C 248.176 58.559, 243.146 58.529, 239.651 58.816 M 927.750 58.810 L 924 59.121 923.821 64.560 C 923.723 67.552, 923.611 71.006, 923.571 72.236 C 923.526 73.660, 924.179 74.603, 925.368 74.832 C 926.438 75.038, 926.970 74.761, 926.614 74.185 C 925.969 73.141, 928.517 67.663, 930.808 65.167 C 931.527 64.383, 931.884 63.140, 931.601 62.403 C 931.319 61.667, 931.548 60.780, 932.110 60.432 C 933.826 59.371, 934.230 60.699, 932.941 63.164 C 931.994 64.976, 932.424 64.773, 934.860 62.259 C 936.587 60.477, 938 58.902, 938 58.759 C 938 58.405, 932.309 58.433, 927.750 58.810 M 235.922 76.250 C 235.880 76.388, 235.673 80.550, 235.463 85.500 C 234.786 101.451, 234.306 109.321, 233.489 117.885 C 232.865 124.436, 232.964 126.179, 233.943 125.852 C 234.644 125.619, 235.366 123.251, 235.584 120.467 C 235.798 117.735, 236.233 113.250, 236.549 110.500 C 237.261 104.321, 237.854 96.892, 238.455 86.626 C 238.708 82.295, 239.159 78.507, 239.458 78.209 C 240.610 77.057, 239.913 76, 238 76 C 236.900 76, 235.965 76.112, 235.922 76.250 M 546.664 76.750 C 546.414 77.162, 546.121 81.550, 546.012 86.500 C 545.791 96.546, 545.620 99.786, 544.501 115.250 C 543.588 127.877, 545.347 130.550, 546.477 118.250 C 546.868 113.987, 547.387 109.150, 547.630 107.500 C 548.374 102.445, 549.399 88.794, 549.451 83.250 C 549.478 80.362, 549.864 78, 550.309 78 C 550.754 78, 550.840 77.550, 550.500 77 C 549.776 75.828, 547.319 75.668, 546.664 76.750 M 923.868 76.250 C 923.796 76.388, 923.605 80.100, 923.444 84.500 C 923.283 88.900, 922.871 97.225, 922.528 103 C 921.234 124.794, 921.214 126.095, 922.188 125.771 C 922.724 125.592, 923.325 123.208, 923.522 120.473 C 923.720 117.738, 924.145 113.475, 924.467 111 C 925.202 105.342, 925.912 96.766, 926.487 86.616 C 926.733 82.280, 927.174 78.493, 927.467 78.200 C 928.611 77.056, 927.907 76, 926 76 C 924.900 76, 923.941 76.112, 923.868 76.250 M 409.718 107.364 C 407.673 114.164, 406 120.035, 406 120.412 C 406 120.788, 408.813 120.961, 412.250 120.798 L 418.500 120.500 418.190 116 C 418.019 113.525, 417.231 107.963, 416.440 103.640 C 415.648 99.316, 415 95.604, 415 95.390 C 415 92.252, 412.684 97.504, 409.718 107.364 M 870.473 96.211 C 868.393 101.629, 863.323 119.990, 863.780 120.446 C 865.250 121.917, 876 120.977, 876 119.378 C 876 110.161, 871.829 92.677, 870.473 96.211 M 806.962 98.331 C 806.708 98.563, 799.750 99.060, 791.500 99.436 C 742.223 101.682, 745.858 100.476, 745.655 114.645 L 745.500 125.500 748 125.393 C 805.473 122.929, 817.163 120.057, 817.346 108.354 L 817.500 98.500 812.462 98.205 C 809.690 98.043, 807.215 98.100, 806.962 98.331 M 864.618 100.180 C 863.770 101.474, 862.378 104.550, 861.525 107.016 C 860.113 111.099, 858.272 115.371, 855.771 120.368 C 855.176 121.556, 855.200 122.600, 855.837 123.237 C 857.044 124.444, 859.820 119.111, 864.185 107.197 C 867.262 98.801, 867.442 95.869, 864.618 100.180 M 405.187 104.010 C 403.984 106.765, 403 109.428, 403 109.927 C 403 110.427, 401.875 113.076, 400.500 115.813 C 397.876 121.037, 397.329 124, 398.987 124 C 400.028 124, 401.514 120.926, 405.995 109.500 C 407.505 105.650, 409.072 101.713, 409.477 100.750 C 409.979 99.559, 409.760 99, 408.794 99 C 408.014 99, 406.390 101.254, 405.187 104.010 M 685.436 113.500 C 687.079 117.433, 686.899 117.756, 684.439 115.297 C 682.835 113.692, 682.777 113.721, 683.435 115.797 C 683.868 117.158, 683.714 118, 683.032 118 C 681.405 118, 683.544 121.611, 685.650 122.419 C 689.939 124.065, 692.537 115.160, 688.412 112.953 C 687.085 112.243, 686 111.288, 686 110.831 C 686 110.374, 685.544 110, 684.987 110 C 684.388 110, 684.571 111.431, 685.436 113.500 M 170.995 133.234 C 165.962 142.890, 153.597 155.293, 147.224 157.077 C 140.859 158.859, 143.387 167.804, 150.780 169.660 C 153.542 170.353, 164 179.522, 164 181.251 C 164 181.779, 165.012 183.457, 166.250 184.980 C 167.488 186.502, 169.267 189.155, 170.203 190.874 C 172.411 194.924, 174.576 194.832, 177.084 190.582 C 178.193 188.702, 180.203 186.442, 181.550 185.559 C 182.898 184.676, 184 183.370, 184 182.657 C 184 180.263, 191.179 172.943, 195.862 170.562 C 198.413 169.265, 201.551 166.774, 202.835 165.027 C 204.224 163.138, 205.743 162.071, 206.585 162.394 C 207.570 162.772, 208 162.186, 208 160.469 C 208 158.582, 207.469 157.994, 205.750 157.977 C 203.521 157.953, 197.938 155.017, 190.191 149.793 C 187.983 148.304, 185.154 145.267, 183.904 143.043 C 182.654 140.819, 181.291 139, 180.874 139 C 180.457 139, 178.852 136.750, 177.308 134.001 C 173.903 127.940, 173.763 127.923, 170.995 133.234 M 434.310 137.436 C 435.391 138.256, 435.711 139.061, 435.104 139.436 C 434.545 139.781, 434.351 140.751, 434.674 141.592 C 435.063 142.607, 434.517 143.314, 433.045 143.698 C 431.400 144.129, 431.172 144.488, 432.157 145.097 C 432.886 145.548, 433.486 146.723, 433.491 147.708 C 433.496 148.694, 434.569 149.950, 435.875 150.500 C 437.226 151.069, 439.043 153.332, 440.090 155.750 C 441.887 159.903, 445.170 161.780, 444.461 158.250 C 444.268 157.287, 443.557 154.025, 442.882 151 C 442.207 147.975, 441.574 144.600, 441.476 143.500 C 441.357 142.173, 440.658 141.574, 439.399 141.721 C 438.354 141.842, 438.063 141.692, 438.750 141.388 C 440.818 140.471, 440.151 138.578, 437.293 137.250 C 433.744 135.602, 432.031 135.708, 434.310 137.436 M 891 137 C 891 137.550, 891.337 138, 891.750 138 C 892.163 138, 892.500 139.125, 892.500 140.500 C 892.500 141.875, 892.163 143, 891.750 143 C 889.853 143, 891.046 149.880, 893.054 150.517 C 894.184 150.876, 896.073 153.156, 897.253 155.585 C 898.433 158.013, 899.984 160, 900.699 160 C 902.231 160, 902.246 159.730, 900.997 154.500 C 900.472 152.300, 899.759 148.475, 899.413 146 C 898.645 140.514, 897.405 138, 895.465 138 C 894.659 138, 894 137.550, 894 137 C 894 136.450, 893.325 136, 892.500 136 C 891.675 136, 891 136.450, 891 137" stroke="none" fill="#6755f8" fill-rule="evenodd"/><path d="M 166.662 16.999 C 161.554 27.621, 155.612 34.094, 147.414 37.967 C 138.223 42.310, 138.169 46.870, 147.241 52.794 C 153.342 56.778, 160.746 64.583, 165.762 72.316 C 172.382 82.524, 173.486 82.377, 183.044 70.022 C 188.772 62.617, 196.603 56, 199.637 56 C 209.032 56, 210.721 41.475, 201.893 36.598 C 188.244 29.057, 185.654 26.406, 179.082 13.250 C 175.343 5.764, 171.509 6.921, 166.662 16.999 M 171.467 19.073 C 170.457 21.313, 168.665 23.905, 167.485 24.833 C 166.304 25.762, 164.700 27.854, 163.919 29.482 C 163.139 31.110, 161.501 32.939, 160.280 33.548 C 159.058 34.157, 157.140 35.823, 156.017 37.251 C 154.894 38.679, 151.733 40.592, 148.993 41.502 L 144.012 43.157 147.008 47.512 C 148.656 49.907, 151.016 52.174, 152.252 52.549 C 157.447 54.127, 170 68.386, 170 72.708 C 170 73.766, 173.242 77, 174.303 77 C 174.658 77, 175.590 75.763, 176.373 74.250 C 177.157 72.737, 179.193 70.042, 180.899 68.259 C 182.605 66.477, 184 64.356, 184 63.546 C 184 61.362, 191.875 54.196, 195.642 52.953 C 197.615 52.302, 199.779 50.475, 201.089 48.356 C 202.285 46.421, 204.216 44.453, 205.382 43.982 C 207.415 43.161, 207.420 43.123, 205.500 43.041 C 202.661 42.920, 194.904 39.255, 192.287 36.799 C 191.071 35.656, 189.082 34.222, 187.868 33.611 C 186.654 33, 184.789 30.925, 183.723 29 C 182.657 27.075, 181.202 25.165, 180.490 24.755 C 179.778 24.346, 178.008 21.983, 176.556 19.505 C 173.367 14.063, 173.713 14.092, 171.467 19.073 M 90 36.709 C 87.415 37.660, 84.858 40.362, 82.884 44.229 C 73.420 62.773, 50.583 84.571, 29.769 94.930 C 19.987 99.798, 18.604 107.138, 27 109.627 C 31.166 110.862, 36.365 114.078, 48.622 123 C 60.880 131.923, 71.201 143.847, 79 158.094 C 87.649 173.895, 94.186 175.407, 100.484 163.063 C 110.943 142.559, 129.700 123.715, 148 115.324 C 162.370 108.736, 162.481 108.664, 162.810 105.816 C 163.445 100.318, 158.142 93.654, 151.766 91.937 C 134.974 87.415, 106.461 60.400, 98.584 41.547 C 96.708 37.056, 93.687 35.354, 90 36.709 M 87.723 42.697 C 87.470 43.139, 86.953 45.213, 86.575 47.306 C 86.128 49.786, 84.513 52.530, 81.944 55.177 C 79.775 57.412, 78 59.817, 78 60.522 C 78 61.226, 76.537 62.666, 74.750 63.722 C 72.672 64.950, 71.140 66.878, 70.500 69.071 C 69.932 71.019, 68.540 72.921, 67.278 73.475 C 66.056 74.011, 64.547 75.679, 63.925 77.182 C 63.217 78.890, 61.561 80.320, 59.502 80.999 C 57.692 81.597, 55.987 82.941, 55.714 83.987 C 55.440 85.032, 53.143 86.863, 50.608 88.054 C 48.074 89.245, 46 90.806, 46 91.521 C 46 93.089, 38.258 97, 35.153 97 C 33.934 97, 32.650 97.787, 32.298 98.750 C 31.451 101.070, 27.950 105.589, 27.326 105.167 C 27.055 104.983, 26.616 105.051, 26.349 105.317 C 26.083 105.584, 27.621 106.098, 29.766 106.461 C 34.046 107.184, 40 110.390, 40 111.972 C 40 112.523, 41.574 113.631, 43.498 114.435 C 45.422 115.238, 47.513 117.031, 48.145 118.419 C 48.826 119.915, 50.717 121.412, 52.788 122.095 C 56.799 123.419, 65.670 132.159, 70.499 139.543 C 72.313 142.317, 74.556 145.217, 75.484 145.987 C 76.412 146.757, 77.856 149.100, 78.694 151.193 C 79.532 153.287, 80.535 155, 80.924 155 C 82.059 155, 86 162.582, 86 164.764 C 86 172.102, 95.215 169.860, 98.151 161.806 C 99.350 158.517, 101.325 155.178, 102.542 154.380 C 103.759 153.583, 105.481 151.034, 106.368 148.715 C 109.170 141.393, 132.859 118.522, 140.126 116.123 C 142.095 115.474, 144.740 113.841, 146.004 112.496 C 147.267 111.151, 150.371 109.290, 152.901 108.360 C 155.430 107.430, 157.878 106.344, 158.339 105.945 C 159.782 104.701, 150.778 96.293, 147.176 95.521 C 145.347 95.129, 142.422 93.562, 140.676 92.039 C 138.929 90.516, 135.588 88.299, 133.250 87.114 C 130.912 85.929, 129 84.503, 129 83.946 C 129 83.389, 127.389 81.982, 125.420 80.820 C 123.450 79.658, 121.451 77.685, 120.975 76.435 C 120.500 75.185, 118.881 73.563, 117.377 72.831 C 115.872 72.099, 113.935 70.279, 113.071 68.787 C 112.207 67.295, 110.263 65.125, 108.750 63.965 C 107.237 62.804, 106 61.178, 106 60.350 C 106 59.523, 104.644 57.490, 102.987 55.833 C 99.419 52.265, 97.873 49.579, 97.041 45.500 C 96.432 42.520, 89.091 40.312, 87.723 42.697 M 546.214 56.250 C 545.069 57.640, 541.920 96.809, 542.135 107 C 542.327 116.069, 542.680 112.674, 544.088 88.250 C 544.762 76.563, 545.592 67, 545.933 67 C 546.274 67, 546.377 68.912, 546.163 71.250 C 545.948 73.588, 546.032 75.254, 546.349 74.954 C 546.666 74.654, 547.132 70.829, 547.386 66.454 C 547.700 61.033, 547.598 59.774, 547.065 62.500 L 546.284 66.500 546.142 61.950 C 546.064 59.447, 546.540 56.860, 547.200 56.200 C 547.860 55.540, 548.140 55, 547.822 55 C 547.505 55, 546.781 55.563, 546.214 56.250 M 546.664 76.750 C 546.414 77.162, 546.121 81.550, 546.012 86.500 C 545.791 96.546, 545.620 99.786, 544.501 115.250 C 543.984 122.404, 544.065 126, 544.744 126 C 545.306 126, 546.071 122.513, 546.445 118.250 C 546.819 113.987, 547.351 109.600, 547.628 108.500 C 548.038 106.871, 547.936 106.778, 547.081 108 C 546.167 109.305, 546.029 109.283, 546.015 107.833 C 546.007 106.917, 546.489 106.004, 547.087 105.804 C 548.143 105.452, 549.351 93.927, 549.451 83.250 C 549.478 80.362, 549.864 78, 550.309 78 C 550.754 78, 550.840 77.550, 550.500 77 C 549.776 75.828, 547.319 75.668, 546.664 76.750 M 578.211 99.500 C 576.003 130.717, 574.854 153.442, 575.179 159.500 L 575.500 165.500 588.252 165.547 L 601.003 165.593 588.346 165.266 L 575.690 164.938 576.352 148.719 C 576.716 139.799, 577.717 122.029, 578.577 109.231 C 579.436 96.433, 579.976 85.183, 579.777 84.231 C 579.577 83.279, 578.873 90.150, 578.211 99.500 M 462.353 98.669 C 460.088 108.422, 459.752 136.027, 461.816 142.851 C 463.754 149.259, 464.003 147.515, 462.295 139.500 C 460.458 130.882, 461.120 107.742, 463.479 98.105 C 464.340 94.588, 464.848 91.515, 464.608 91.275 C 464.368 91.035, 463.354 94.363, 462.353 98.669 M 870.433 96.315 C 868.385 101.651, 863.328 119.994, 863.780 120.446 C 864.084 120.751, 866.958 121, 870.167 121 L 876 121 875.850 117.750 C 875.711 114.725, 875.671 114.690, 875.284 117.250 C 874.889 119.854, 874.585 120, 869.530 120 L 864.194 120 867.530 108.900 C 869.365 102.795, 871.071 97.596, 871.321 97.346 C 871.851 96.815, 874 108.567, 874 111.999 C 874 113.283, 874.298 114.036, 874.662 113.672 C 875.556 112.777, 873.026 96.134, 871.889 95.431 C 871.392 95.124, 870.737 95.522, 870.433 96.315 M 407.694 99.644 C 408.350 99.911, 408.625 100.813, 408.305 101.648 C 407.829 102.889, 407.551 102.923, 406.795 101.834 C 406.174 100.939, 406.090 101.282, 406.542 102.875 C 407 104.493, 406.861 105.032, 406.105 104.565 C 404.697 103.695, 402.746 108.623, 403.525 111.080 C 403.842 112.078, 403.199 114.606, 402.095 116.698 C 400.991 118.789, 400.062 119.825, 400.029 119 C 399.942 116.801, 398.036 119.877, 398.015 122.250 C 397.968 127.610, 400.443 123.657, 405.995 109.500 C 407.505 105.650, 409.072 101.713, 409.477 100.750 C 410.030 99.437, 409.750 99.020, 408.357 99.079 C 407.336 99.122, 407.037 99.376, 407.694 99.644 M 230.750 117.909 C 230.338 126.384, 230.069 138.309, 230.154 144.409 C 230.258 151.858, 230.589 147.947, 231.162 132.500 C 231.631 119.850, 231.899 107.925, 231.758 106 C 231.616 104.075, 231.162 109.434, 230.750 117.909 M 661.798 142.250 C 661.341 166.446, 661.227 166.061, 668.785 165.811 L 674.500 165.622 668.750 165.261 C 665.227 165.040, 662.959 164.435, 662.893 163.700 C 662.834 163.040, 662.877 153.387, 662.987 142.250 C 663.097 131.113, 662.961 122, 662.684 122 C 662.407 122, 662.009 131.113, 661.798 142.250 M 168.190 130.750 C 162.782 141.881, 154.260 151.079, 146 154.701 C 136.839 158.719, 137.402 164.468, 147.500 170.002 C 153.846 173.480, 158.083 177.733, 163.775 186.339 C 169.957 195.687, 175.972 197.719, 179.225 191.560 C 181.853 186.583, 192.412 175.785, 197.405 172.966 C 204.475 168.977, 208.816 164.406, 207.116 162.743 C 206.097 161.747, 205.214 162.226, 202.672 165.153 C 200.927 167.162, 197.636 169.734, 195.357 170.868 C 191.094 172.991, 184 180.354, 184 182.657 C 184 183.370, 182.898 184.676, 181.550 185.559 C 180.203 186.442, 178.193 188.702, 177.084 190.582 C 174.576 194.832, 172.411 194.924, 170.203 190.874 C 169.267 189.155, 167.488 186.502, 166.250 184.980 C 165.012 183.457, 164 181.779, 164 181.251 C 164 179.522, 153.542 170.353, 150.780 169.660 C 143.387 167.804, 140.859 158.859, 147.224 157.077 C 153.597 155.293, 165.962 142.890, 170.995 133.234 C 173.763 127.923, 173.903 127.940, 177.308 134.001 C 178.852 136.750, 180.457 139, 180.874 139 C 181.291 139, 182.634 140.783, 183.859 142.963 C 187.189 148.889, 201.767 158.497, 206.333 157.775 C 208.104 157.495, 207.586 156.934, 203.500 154.706 C 192.591 148.757, 187.930 144.618, 184.214 137.579 C 176.798 123.530, 172.574 121.730, 168.190 130.750 M 252 136.107 C 252 136.716, 252.717 136.939, 253.593 136.603 C 254.655 136.195, 255.360 136.659, 255.709 137.996 C 255.997 139.098, 256.931 140, 257.783 140 C 258.636 140, 258.995 140.338, 258.582 140.750 C 258.169 141.162, 255.996 141.500, 253.752 141.500 C 251.380 141.500, 249.498 142.023, 249.253 142.750 C 249.022 143.438, 249.347 144, 249.976 144 C 250.604 144, 250.886 143.625, 250.603 143.167 C 249.913 142.051, 253.203 142.040, 254.623 143.154 C 255.241 143.638, 256.366 143.798, 257.123 143.509 C 258.087 143.141, 258.565 143.917, 258.718 146.095 C 258.978 149.811, 256.700 152.522, 254.224 151.442 C 252.604 150.736, 252.606 150.665, 254.262 150.270 C 255.231 150.038, 255.771 149.438, 255.460 148.936 C 255.150 148.434, 255.594 148.291, 256.448 148.618 C 257.302 148.946, 258 148.742, 258 148.166 C 258 146.304, 256.202 145.941, 254.652 147.491 C 253.822 148.321, 252.661 149, 252.071 149 C 251.482 149, 251 149.959, 251 151.132 C 251 153.041, 251.417 153.207, 255 152.727 C 258.707 152.230, 259 152.367, 259 154.595 C 259 155.918, 258.502 157, 257.893 157 C 257.284 157, 257.045 156.325, 257.362 155.500 C 257.791 154.382, 257.208 154, 255.076 154 C 252.124 154, 250.218 156.399, 252.198 157.622 C 252.846 158.023, 253.029 157.856, 252.638 157.224 C 252.269 156.627, 252.425 155.856, 252.984 155.510 C 253.543 155.165, 254 155.584, 254 156.441 C 254 157.298, 254.338 157.947, 254.750 157.882 C 257.347 157.472, 258.917 158.290, 259.298 160.250 C 259.538 161.488, 259.682 157.213, 259.617 150.751 C 259.526 141.582, 259.202 139.001, 258.143 139.001 C 257.390 139, 257.025 138.376, 257.324 137.599 C 257.655 136.736, 257.023 135.972, 255.681 135.612 C 252.575 134.779, 252 134.856, 252 136.107" stroke="none" fill="#a195f9" fill-rule="evenodd"/></svg>